<?xml version="1.0" encoding="UTF-8"?>
<svg xmlns="http://www.w3.org/2000/svg" viewBox="72.65 550.88 65.93 87.75" role="img" aria-label="Glamouroso">
  <path fill-rule="nonzero" fill="#22b6eb" d="M 84.394531 577.210938 C 85.398438 577.410156 86.367188 577.511719 87.3125 577.511719 C 92.671875 577.511719 96.792969 574.59375 99.679688 568.761719 C 97.066406 571.914062 92.539062 573.488281 86.101562 573.488281 C 84.828125 573.488281 83.488281 573.421875 82.082031 573.285156 L 84.59375 563.632812 C 90.628906 563.835938 95.289062 562.929688 98.574219 560.917969 C 104.203125 556.894531 109.800781 554.882812 115.367188 554.882812 C 122.410156 554.882812 128.039062 557.933594 132.261719 564.035156 L 129.148438 575.902344 C 128.339844 574.628906 127.4375 573.523438 126.433594 572.582031 C 124.152344 570.304688 121.738281 569.132812 119.191406 569.0625 C 118.386719 568.863281 117.546875 568.761719 116.675781 568.761719 C 109.167969 568.761719 102.761719 575.566406 97.464844 589.179688 C 95.320312 594.742188 94.246094 600.238281 94.246094 605.671875 C 94.246094 613.3125 95.960938 618.039062 99.382812 619.851562 C 99.988281 620.1875 100.960938 620.523438 102.304688 620.855469 C 105.457031 620.855469 108.546875 620.222656 111.566406 618.949219 L 117.921875 594.605469 L 107.523438 594.605469 L 110.140625 584.148438 L 134.578125 584.148438 L 122.109375 631.921875 L 110.34375 631.921875 C 106.519531 633.730469 102.765625 634.636719 99.078125 634.636719 C 95.589844 634.636719 92.371094 633.832031 89.421875 632.222656 C 85.332031 629.941406 82.179688 626.421875 79.96875 621.660156 C 77.753906 616.902344 76.652344 611.472656 76.652344 605.367188 C 76.652344 595.648438 79.230469 586.261719 84.394531 577.210938 "/>
</svg>
