<?xml version="1.0" encoding="UTF-8"?>
<svg xmlns="http://www.w3.org/2000/svg" viewBox="66.65 544.38 477.68 117.25" role="img" aria-label="Glamouroso">
<!-- Azul sobre blanco -->
<rect x="66.65" y="544.38" width="477.68" height="117.25" fill="#ffffff"/>
<path fill-rule="nonzero" fill="rgb(13.33313%, 71.372986%, 92.156982%)" fill-opacity="1" d="M 84.394531 577.210938 C 85.398438 577.410156 86.367188 577.511719 87.3125 577.511719 C 92.671875 577.511719 96.792969 574.59375 99.679688 568.761719 C 97.066406 571.914062 92.539062 573.488281 86.101562 573.488281 C 84.828125 573.488281 83.488281 573.421875 82.082031 573.285156 L 84.59375 563.632812 C 90.628906 563.835938 95.289062 562.929688 98.574219 560.917969 C 104.203125 556.894531 109.800781 554.882812 115.367188 554.882812 C 122.410156 554.882812 128.039062 557.933594 132.261719 564.035156 L 129.148438 575.902344 C 128.339844 574.628906 127.4375 573.523438 126.433594 572.582031 C 124.152344 570.304688 121.738281 569.132812 119.191406 569.0625 C 118.386719 568.863281 117.546875 568.761719 116.675781 568.761719 C 109.167969 568.761719 102.761719 575.566406 97.464844 589.179688 C 95.320312 594.742188 94.246094 600.238281 94.246094 605.671875 C 94.246094 613.3125 95.960938 618.039062 99.382812 619.851562 C 99.988281 620.1875 100.960938 620.523438 102.304688 620.855469 C 105.457031 620.855469 108.546875 620.222656 111.566406 618.949219 L 117.921875 594.605469 L 107.523438 594.605469 L 110.140625 584.148438 L 134.578125 584.148438 L 122.109375 631.921875 L 110.34375 631.921875 C 106.519531 633.730469 102.765625 634.636719 99.078125 634.636719 C 95.589844 634.636719 92.371094 633.832031 89.421875 632.222656 C 85.332031 629.941406 82.179688 626.421875 79.96875 621.660156 C 77.753906 616.902344 76.652344 611.472656 76.652344 605.367188 C 76.652344 595.648438 79.230469 586.261719 84.394531 577.210938 "/>
<path fill-rule="nonzero" fill="rgb(13.33313%, 71.372986%, 92.156982%)" fill-opacity="1" d="M 146.140625 631.917969 L 132.3125 631.917969 L 151.015625 560.3125 L 164.949219 560.3125 Z M 146.140625 631.917969 "/>
<path fill-rule="nonzero" fill="rgb(13.33313%, 71.372986%, 92.156982%)" fill-opacity="1" d="M 165.347656 631.714844 C 159.917969 629.363281 157.203125 623.957031 157.203125 615.492188 C 157.203125 610.789062 158.207031 606.085938 160.214844 601.382812 C 162.417969 596.144531 165.425781 591.859375 169.238281 588.535156 C 173.046875 585.207031 176.855469 583.542969 180.667969 583.542969 C 184.410156 583.542969 187.386719 585.113281 189.59375 588.25 L 190.761719 584.148438 L 204.371094 584.148438 L 195.621094 617.941406 C 195.484375 618.410156 195.421875 618.84375 195.421875 619.246094 C 195.421875 620.589844 196.191406 621.257812 197.734375 621.257812 C 198.601562 621.257812 199.578125 621.125 200.648438 620.855469 L 198.136719 629.5625 C 194.648438 631.871094 191.429688 633.027344 188.480469 633.027344 C 185.128906 633.027344 182.3125 631.515625 180.03125 628.5 C 176.546875 631.183594 173.09375 632.523438 169.675781 632.523438 C 168.132812 632.523438 166.691406 632.253906 165.347656 631.714844 M 182.144531 594.308594 C 180.535156 594.308594 178.808594 595.316406 176.964844 597.335938 C 175.121094 599.355469 173.597656 602.011719 172.390625 605.3125 C 171.25 608.335938 170.679688 611.265625 170.679688 614.09375 C 170.679688 618.601562 171.851562 620.855469 174.199219 620.855469 C 175.742188 620.855469 177.449219 619.78125 179.328125 617.625 C 181.207031 615.472656 182.75 612.714844 183.953125 609.347656 C 185.160156 606.320312 185.765625 603.457031 185.765625 600.769531 C 185.765625 596.460938 184.558594 594.308594 182.144531 594.308594 "/>
<path fill-rule="nonzero" fill="rgb(13.33313%, 71.372986%, 92.156982%)" fill-opacity="1" d="M 272.253906 639.058594 C 274.066406 639.125 275.507812 638.523438 276.578125 637.25 L 279.59375 646.199219 C 276.441406 649.550781 271.917969 651.363281 266.019531 651.628906 C 262.128906 651.628906 258.945312 650.257812 256.464844 647.511719 C 254.320312 645.230469 253.214844 642.820312 253.144531 640.273438 C 253.144531 640.808594 253.460938 637.996094 254.097656 631.832031 L 262.441406 599.648438 C 262.546875 599.3125 262.601562 598.972656 262.601562 598.636719 C 262.601562 597.496094 262.058594 596.621094 260.976562 596.019531 C 260.503906 595.617188 259.964844 595.414062 259.355469 595.414062 C 258.140625 595.414062 256.820312 595.980469 255.402344 597.117188 C 253.304688 598.785156 252.222656 599.65625 252.15625 599.71875 C 251.140625 600.65625 250.328125 601.757812 249.722656 603.027344 L 242.25 631.820312 L 228.304688 631.820312 L 236.753906 600.140625 C 236.820312 599.804688 236.851562 599.46875 236.851562 599.132812 C 236.851562 597.996094 236.316406 597.121094 235.246094 596.519531 C 234.84375 596.117188 234.304688 595.914062 233.632812 595.914062 C 232.496094 595.914062 231.191406 596.484375 229.714844 597.625 C 227.300781 599.570312 225.859375 600.84375 225.390625 601.449219 C 224.183594 602.988281 223.3125 605.269531 222.777344 608.285156 L 222.675781 608.285156 L 216.390625 631.820312 L 202.558594 631.820312 L 215.03125 584.347656 L 228.859375 584.347656 L 227.902344 588.070312 C 231.859375 585.589844 235.679688 584.347656 239.367188 584.347656 C 240.707031 584.347656 241.816406 584.523438 242.6875 584.859375 C 245.769531 586.222656 247.984375 588.199219 249.324219 590.789062 C 254.621094 586.226562 259.886719 583.949219 265.113281 583.949219 C 266.386719 583.949219 267.492188 584.117188 268.433594 584.449219 C 273.929688 586.863281 276.679688 590.957031 276.679688 596.71875 C 276.679688 597.792969 276.578125 598.765625 276.375 599.636719 L 267.929688 631.820312 C 267.863281 634.703125 268.296875 636.675781 269.238281 637.75 C 269.839844 638.488281 270.847656 638.921875 272.253906 639.058594 "/>
<path fill-rule="nonzero" fill="rgb(13.33313%, 71.372986%, 92.156982%)" fill-opacity="1" d="M 286.835938 631.316406 C 280.53125 628.234375 277.382812 622.332031 277.382812 613.617188 C 277.382812 608.921875 278.488281 604.332031 280.703125 599.835938 C 283.046875 594.945312 286.230469 591.039062 290.253906 588.121094 C 294.277344 585.203125 298.367188 583.746094 302.523438 583.746094 C 304.9375 583.746094 307.183594 584.285156 309.265625 585.355469 C 315.5625 588.371094 318.714844 594.238281 318.714844 602.953125 C 318.714844 607.648438 317.609375 612.242188 315.398438 616.734375 C 313.050781 621.628906 309.867188 625.535156 305.84375 628.449219 C 301.820312 631.367188 297.730469 632.824219 293.574219 632.824219 C 291.160156 632.824219 288.914062 632.320312 286.835938 631.316406 M 302.625 594.605469 C 301.082031 594.605469 299.375 595.5625 297.496094 597.472656 C 295.617188 599.382812 294.007812 601.949219 292.667969 605.167969 C 291.261719 608.585938 290.558594 611.839844 290.558594 614.921875 C 290.558594 619.347656 291.828125 621.558594 294.378906 621.558594 C 295.921875 621.558594 297.628906 620.621094 299.507812 618.746094 C 301.386719 616.871094 303.011719 614.269531 304.386719 610.949219 C 305.757812 607.632812 306.445312 604.429688 306.445312 601.34375 C 306.445312 596.855469 305.171875 594.605469 302.625 594.605469 "/>
<path fill-rule="nonzero" fill="rgb(13.33313%, 71.372986%, 92.156982%)" fill-opacity="1" d="M 334.398438 620.753906 C 334.792969 621.089844 335.363281 621.257812 336.097656 621.257812 C 337.300781 621.257812 338.734375 620.855469 340.402344 620.050781 C 342.402344 619.039062 344.035156 617.027344 345.304688 614 L 353.070312 584.351562 L 366.988281 584.351562 L 354.617188 632.222656 L 340.59375 632.222656 L 341.445312 629.304688 C 337.421875 631.449219 333.332031 632.523438 329.175781 632.523438 C 328.304688 632.523438 327.566406 632.488281 326.960938 632.421875 C 321.464844 631.015625 318.71875 626.992188 318.71875 620.351562 C 318.71875 619.214844 318.816406 618.140625 319.015625 617.136719 L 327.667969 584.351562 L 341.5 584.351562 L 332.851562 617.121094 C 332.816406 617.460938 332.796875 617.796875 332.796875 618.132812 C 332.796875 619.277344 333.328125 620.152344 334.398438 620.753906 "/>
<path fill-rule="nonzero" fill="rgb(13.33313%, 71.372986%, 92.156982%)" fill-opacity="1" d="M 400.78125 585.046875 L 397.65625 598.027344 C 395.90625 597.019531 394.257812 596.519531 392.714844 596.519531 C 389.148438 596.519531 386.359375 598.960938 384.34375 603.847656 L 376.816406 631.820312 L 362.964844 631.820312 L 375.738281 584.351562 L 389.585938 584.351562 L 388.8125 587.367188 C 392.097656 585.355469 395.078125 584.351562 397.761719 584.351562 C 398.96875 584.351562 399.976562 584.582031 400.78125 585.046875 "/>
<path fill-rule="nonzero" fill="rgb(13.33313%, 71.372986%, 92.156982%)" fill-opacity="1" d="M 403.996094 563.835938 L 407.414062 563.835938 C 411.304688 563.835938 414.390625 562.996094 416.667969 561.316406 C 422.503906 556.691406 428.367188 554.378906 434.269531 554.378906 C 437.753906 554.378906 441.039062 555.21875 444.125 556.894531 C 448.550781 559.308594 451.984375 563.097656 454.433594 568.257812 C 456.878906 573.421875 458.101562 579.289062 458.101562 585.855469 C 458.101562 593.636719 456.425781 601.28125 453.074219 608.789062 C 449.519531 616.835938 444.761719 623.269531 438.792969 628.097656 C 432.824219 632.925781 426.757812 635.335938 420.589844 635.335938 C 417.105469 635.335938 413.851562 634.5 410.835938 632.824219 C 406.410156 630.410156 402.972656 626.621094 400.527344 621.460938 C 398.082031 616.300781 396.855469 610.433594 396.855469 603.859375 C 396.855469 596.085938 398.53125 588.441406 401.886719 580.933594 L 404.097656 577.109375 C 405.105469 577.378906 406.074219 577.511719 407.015625 577.511719 C 412.175781 577.511719 416.199219 574.628906 419.082031 568.863281 C 416.464844 571.945312 411.941406 573.488281 405.507812 573.488281 C 404.230469 573.488281 402.890625 573.425781 401.484375 573.292969 Z M 439.195312 601.648438 C 441.742188 594.742188 443.019531 588.238281 443.019531 582.136719 C 443.019531 578.71875 442.582031 575.800781 441.710938 573.390625 C 440.367188 569.902344 438.292969 568.15625 435.476562 568.15625 C 432.457031 568.15625 429.238281 570.105469 425.820312 573.992188 C 422.402344 577.882812 419.519531 582.941406 417.171875 589.175781 C 414.625 596.085938 413.347656 602.589844 413.347656 608.6875 C 413.347656 612.109375 413.785156 615.023438 414.65625 617.4375 C 416 620.925781 418.078125 622.664062 420.894531 622.664062 C 423.910156 622.664062 427.109375 620.722656 430.5 616.835938 C 433.882812 612.945312 436.78125 607.882812 439.195312 601.648438 "/>
<path fill-rule="nonzero" fill="rgb(13.33313%, 71.372986%, 92.156982%)" fill-opacity="1" d="M 492.09375 597.726562 C 488.273438 594.976562 483.78125 593.605469 478.617188 593.605469 C 477.480469 593.605469 476.339844 593.96875 475.199219 594.707031 C 474.058594 595.445312 473.492188 596.351562 473.492188 597.421875 C 473.492188 598.496094 474.933594 599.769531 477.816406 601.246094 C 481.835938 603.257812 484.519531 604.796875 485.859375 605.871094 C 488.675781 608.21875 490.085938 611.035156 490.085938 614.320312 C 490.085938 620.019531 488.171875 624.59375 484.351562 628.046875 C 480.53125 631.5 475.734375 633.226562 469.96875 633.226562 C 468.023438 633.226562 465.277344 632.824219 461.722656 632.019531 C 457.835938 631.214844 455.320312 630.378906 454.183594 629.503906 L 456.996094 618.339844 C 460.683594 620.488281 465.109375 621.5625 470.273438 621.5625 C 474.699219 621.5625 476.910156 620.320312 476.910156 617.839844 C 476.910156 615.960938 475.585938 614.289062 472.9375 612.808594 C 470.285156 611.335938 467.65625 609.894531 465.042969 608.484375 C 462.292969 606.410156 460.917969 603.792969 460.917969 600.644531 C 460.917969 595.480469 462.929688 591.15625 466.953125 587.667969 C 470.773438 584.382812 475.300781 582.742188 480.53125 582.742188 C 486.496094 582.742188 491.289062 583.984375 494.910156 586.460938 Z M 492.09375 597.726562 "/>
<path fill-rule="nonzero" fill="rgb(13.33313%, 71.372986%, 92.156982%)" fill-opacity="1" d="M 502.453125 631.316406 C 496.148438 628.234375 493 622.332031 493 613.617188 C 493 608.921875 494.105469 604.332031 496.320312 599.835938 C 498.664062 594.945312 501.847656 591.039062 505.871094 588.121094 C 509.894531 585.203125 513.984375 583.746094 518.144531 583.746094 C 520.558594 583.746094 522.800781 584.285156 524.882812 585.355469 C 531.179688 588.371094 534.332031 594.238281 534.332031 602.953125 C 534.332031 607.648438 533.226562 612.242188 531.015625 616.734375 C 528.667969 621.628906 525.484375 625.535156 521.460938 628.449219 C 517.4375 631.367188 513.347656 632.824219 509.191406 632.824219 C 506.777344 632.824219 504.53125 632.320312 502.453125 631.316406 M 518.242188 594.605469 C 516.699219 594.605469 514.988281 595.5625 513.113281 597.472656 C 511.234375 599.382812 509.625 601.949219 508.285156 605.167969 C 506.878906 608.585938 506.175781 611.839844 506.175781 614.921875 C 506.175781 619.347656 507.445312 621.558594 509.996094 621.558594 C 511.535156 621.558594 513.246094 620.621094 515.125 618.746094 C 517.003906 616.871094 518.628906 614.269531 520 610.949219 C 521.375 607.632812 522.0625 604.429688 522.0625 601.34375 C 522.0625 596.855469 520.789062 594.605469 518.242188 594.605469 "/>
</svg>
